PathFileType	4	(X/Y/Z)	C:/Users/opensim2020/Desktop/walking_exp_matlab/subject01_walking04_straight_04.trc																																																																																																																															
DataRate	CameraRate	NumFrames	NumMarkers	Units	OrigDataRate	OrigDataStartFrame	OrigNumFrames																																																																																																																											
100	100	4	43	mm	100	2836	279																																																																																																																											
Frame#	Time	LFHD			RFHD			LBHD			RBHD			C7			T10			CLAV			STRN			RBAK			LSHO			LUPA			LELB			LFRM			LWRA			LWRB			LFIN			RSHO			RUPA			RELB			RFRM			RWRA			RWRB			RFIN			LASI			RASI			LPSI			RPSI			LTHI			LKNE			LTIB			LANK			LHEE			LTOE			RTHI			RKNE			RTIB			RANK			RHEE			RTOE			*39			*40			*41			*42		
		X1	Y1	Z1	X2	Y2	Z2	X3	Y3	Z3	X4	Y4	Z4	X5	Y5	Z5	X6	Y6	Z6	X7	Y7	Z7	X8	Y8	Z8	X9	Y9	Z9	X10	Y10	Z10	X11	Y11	Z11	X12	Y12	Z12	X13	Y13	Z13	X14	Y14	Z14	X15	Y15	Z15	X16	Y16	Z16	X17	Y17	Z17	X18	Y18	Z18	X19	Y19	Z19	X20	Y20	Z20	X21	Y21	Z21	X22	Y22	Z22	X23	Y23	Z23	X24	Y24	Z24	X25	Y25	Z25	X26	Y26	Z26	X27	Y27	Z27	X28	Y28	Z28	X29	Y29	Z29	X30	Y30	Z30	X31	Y31	Z31	X32	Y32	Z32	X33	Y33	Z33	X34	Y34	Z34	X35	Y35	Z35	X36	Y36	Z36	X37	Y37	Z37	X38	Y38	Z38	X39	Y39	Z39	X40	Y40	Z40	X41	Y41	Z41	X42	Y42	Z42	X43	Y43	Z43
																																																																																																																																		
140	1.39	-563.57007	1674.30383	-1455.91931	-537.42328	1677.02515	-1344.68127	-678.06049	1627.80786	-1435.57751	-654.4339	1629.78845	-1317.64124	-715.10352	1434.72693	-1399.50623	-750.18872	1142.24377	-1392.87708	-570.74121	1367.66382	-1408.2522	-526.54144	1214.73926	-1418.46191	-763.62451	1239.23877	-1319.42725	-640.44031	1399.74011	-1565.80273	-688.54602	1220.29944	-1650.8407	-716.9198	1071.90454	-1653.31177	-686.88562	961.63226	-1680.52271	-615.13654	841.60382	-1663.93005	-670.92694	840.3714	-1688.07507	-626.23694	768.73633	-1698.6864	-628.9574	1394.81335	-1253.37158	-668.09497	1193.14087	-1146.86072	-651.39917	1066.87659	-1139.2157	-582.65503	963.27142	-1118.40063	-466.55542	885.97308	-1150.60474	-504.54599	868.85962	-1109.90076	-441.41827	812.40387	-1116.49377	-581.96979	938.0368	-1510.73291	-573.98706	935.0459	-1294.27795	-765.92047	946.44666	-1455.39465	-759.51953	950.78491	-1311.10767	-516.89178	630.43066	-1585.396	-489.06967	498.28287	-1571.32898	-570.80597	328.04523	-1574.36792	-632.63147	118.52568	-1522.66089	-669.3689	92.96088	-1460.2428	-507.92337	54.74686	-1556.21277	-650.00385	602.46155	-1249.39087	-656.27411	444.22964	-1280.24353	-723.32971	280.44586	-1274.53516	-770.29309	80.82269	-1330.13452	-824.4635	46.38429	-1377.79883	-632.13531	37.63522	-1339.54285	-552.37451	1711.21924	-1364.56982	-1973.07385	1023.51935	3101.9624	-2012.5166	1021.95496	3140.66138	NaN	NaN	NaN
141	1.4	-553.78412	1673.47522	-1456.79968	-527.4281	1676.36658	-1345.57178	-668.22577	1627.07507	-1436.19409	-644.44379	1629.20605	-1318.2627	-705.27997	1434.01526	-1399.63159	-740.66315	1141.62744	-1392.53491	-561.01709	1366.75623	-1408.6853	-517.11292	1213.73376	-1418.63428	-753.81567	1238.82605	-1319.02869	-631.10315	1398.66577	-1566.23792	-680.19684	1219.06567	-1650.62939	-709.41833	1070.98169	-1651.9762	-681.81689	960.22321	-1679.03833	-612.86255	838.53186	-1662.38049	-668.7254	838.50787	-1686.19019	-625.72076	765.73651	-1696.76282	-618.76544	1394.25842	-1253.57935	-657.18121	1192.85693	-1146.65295	-639.90277	1066.67883	-1138.58191	-569.28107	964.01202	-1118.22229	-452.21323	888.85596	-1151.20667	-489.66345	870.94885	-1110.3877	-425.7193	815.36462	-1117.57202	-572.49744	937.23163	-1510.61011	-565.15106	933.81299	-1294.15454	-756.5993	945.8916	-1455.81494	-750.56085	950.18066	-1311.50769	-506.13153	630.45642	-1585.04578	-478.32431	498.07373	-1570.45374	-552.11237	323.75119	-1574.46167	-602.16394	110.50748	-1523.14343	-637.42493	83.25731	-1460.69409	-474.60266	54.13496	-1557.72156	-643.67047	601.82629	-1249.50671	-651.90192	443.53098	-1280.1665	-720.8158	280.86371	-1274.56726	-770.2121	81.25139	-1330.07581	-824.14752	47.24145	-1377.79858	-631.91205	37.42889	-1339.43286	-542.3905	1710.50159	-1365.46497	-1973.16455	1023.39648	3101.9292	-2012.63623	1022.09192	3140.67773	NaN	NaN	NaN
142	1.41	-543.98584	1672.5741	-1457.74219	-517.50287	1675.67236	-1346.56384	-658.39856	1626.22742	-1436.92126	-634.4906	1628.53125	-1319.09851	-695.38245	1433.2771	-1400.00256	-731.04004	1140.88062	-1392.45569	-551.28882	1365.78638	-1409.12231	-507.49063	1212.69409	-1418.80835	-743.94574	1238.26465	-1318.77576	-621.68488	1397.43994	-1566.64917	-671.69934	1217.51367	-1650.04883	-701.77429	1069.99805	-1650.72815	-676.4953	958.79993	-1677.6084	-610.29602	835.57043	-1660.84021	-666.17694	836.74268	-1684.54504	-625.10443	763.08844	-1695.11267	-608.5675	1393.73389	-1254.17151	-646.21924	1192.46143	-1146.49634	-628.4726	1066.45251	-1138.01062	-556.13562	964.8078	-1118.22644	-438.16147	891.51318	-1151.89404	-475.19263	872.96057	-1111.09753	-410.37479	818.25879	-1118.70532	-562.87299	936.37207	-1510.6283	-556.5033	932.47717	-1293.99597	-747.16608	945.1521	-1456.24463	-741.56061	949.55389	-1311.94812	-496.11652	629.96881	-1584.69751	-468.12698	497.44296	-1569.73364	-533.65186	319.74521	-1574.79077	-571.84918	103.91966	-1524.4364	-605.66541	74.56837	-1461.74768	-441.39828	54.01017	-1558.61487	-637.47321	601.11237	-1249.69263	-647.78198	442.97385	-1280.07813	-718.48047	281.16022	-1274.6189	-769.78986	81.71888	-1330.06433	-823.82111	48.14098	-1377.83105	-631.83582	37.37666	-1339.45642	-532.51532	1709.74451	-1366.53821	-1973.19824	1023.23999	3101.90747	-2012.48242	1021.91095	3140.63477	NaN	NaN	NaN
143	1.42	-534.17249	1671.64319	-1458.81714	-507.56354	1674.82263	-1347.60779	-648.57086	1625.31274	-1437.73877	-624.52008	1627.80774	-1319.91345	-685.48773	1432.46265	-1400.40759	-721.46912	1140.16016	-1392.56812	-541.49164	1364.84021	-1409.76416	-497.94952	1211.59888	-1419.12695	-734.03247	1237.63574	-1318.65894	-612.11316	1396.17969	-1567.19995	-663.09265	1216.11633	-1649.97888	-693.95648	1068.95691	-1649.59204	-671.05682	957.37958	-1676.20776	-607.44629	832.85175	-1659.44995	-663.37646	835.12976	-1683.17395	-623.99237	760.47461	-1693.41357	-598.39081	1393.28259	-1254.65894	-635.31403	1192.18213	-1146.42041	-617.09656	1066.17346	-1137.53442	-543.27307	965.53644	-1118.26318	-424.3746	893.98492	-1152.74268	-461.05453	874.76636	-1111.53101	-395.24689	820.98389	-1120.01184	-553.20337	935.37305	-1510.65869	-547.159	931.35956	-1293.79346	-737.72229	944.40625	-1456.80847	-732.51477	948.99597	-1312.60803	-486.63333	628.98566	-1584.37292	-458.49643	496.44937	-1569.11389	-515.3587	315.86908	-1575.19946	-541.12531	97.76102	-1525.94373	-573.92639	66.77705	-1463.4458	-407.34155	54.42186	-1558.78247	-631.46716	600.69458	-1249.69019	-643.59027	442.55042	-1280.14734	-716.23132	281.22778	-1274.54541	-769.35327	82.2711	-1330.11047	-823.6275	49.48551	-1378.02808	-631.67566	37.24234	-1339.41785	-522.65546	1708.90723	-1367.60266	-1973.05261	1023.67578	3101.96338	-2012.48633	1021.987	3140.74292	NaN	NaN	NaN
